{"title":"Interstellar.2014.1080p.BluRay.REMUX.AVC.DTS-HD.MA.5.1-RARBG","uid":11764061,"size":45861763505,"categoryP":"video","categoryS":"hd___movies","magnet":"?xt=urn:btih:f468064f94d1470f94fc637676fad1f1c399ba52&amp;dn=Interstellar.2014.1080p.BluRay.REMUX.AVC.DTS-HD.MA.5.1-RARBG&amp;tr=udp%3A%2F%2Ftracker.openbittorrent.com%3A80&amp;tr=udp%3A%2F%2Fopen.demonii.com%3A1337&amp;tr=udp%3A%2F%2Ftracker.coppersurfer.tk%3A6969&amp;tr=udp%3A%2F%2Fexodus.desync.com%3A6969","seeders":29,"leechers":18,"uploader":"vickey1992","files":4,"time":1426677370,"description":" &lt;a href=&quot;http://rarbg.com/&quot; rel=&quot;nofollow&quot; target=&quot;_NEW&quot;&gt;http://rarbg.com/&lt;/a&gt;\n\n\n\nInterstellar.2014.1080p.BluRay.REMUX.AVC.DTS-HD.MA.5.1-RARBG\n\nInfo:\n\n[mediainfo]\n\nVideo\nID : 1\nFormat : AVC\nFormat/Info : Advanced Video Codec\nFormat profile : &lt;a class=&quot;__cf_email__&quot; href=&quot;/cdn-cgi/l/email-protection&quot; data-cfemail=&quot;ffb7969897bfb3cbd1ce&quot;&gt;[email&amp;#160;protected]&lt;/a&gt;&lt;script cf-hash='f9e31' type=&quot;text/javascript&quot;&gt;\n/* &lt;![CDATA[ */!function(){try{var t=&quot;currentScript&quot;in document?document.currentScript:function(){for(var t=document.getElementsByTagName(&quot;script&quot;),e=t.length;e--;)if(t[e].getAttribute(&quot;cf-hash&quot;))return t[e]}();if(t&amp;&amp;t.previousSibling){var e,r,n,i,c=t.previousSibling,a=c.getAttribute(&quot;data-cfemail&quot;);if(a){for(e=&quot;&quot;,r=parseInt(a.substr(0,2),16),n=2;a.length-n;n+=2)i=parseInt(a.substr(n,2),16)^r,e+=String.fromCharCode(i);e=document.createTextNode(e),c.parentNode.replaceChild(e,c)}}}catch(u){}}();/* ]]&gt; */&lt;/script&gt;\nFormat settings, CABAC : Yes\nFormat settings, ReFrames : 2 frames\nFormat settings, GOP : M=1, N=10\nCodec ID : V_MPEG4/ISO/AVC\nDuration : 2h 49mn\nBit rate mode : Variable\nWidth : 1 920 pixels\nHeight : 1 080 pixels\nDisplay aspect ratio : 16:9\nFrame rate mode : Constant\nFrame rate : 23.976 fps\nColor space : YUV\nChroma subsampling : 4:2:0\nBit depth : 8 bits\nScan type : Progressive\nLanguage : English\nDefault : No\nForced : No\n\nAudio #1\nID : 2\nFormat : DTS\nFormat/Info : Digital Theater Systems\nFormat profile : MA / Core\nMode : 16\nFormat settings, Endianness : Big\nCodec ID : A_DTS\nDuration : 2h 49mn\nBit rate mode : Variable\nBit rate : Unknown / 1 509 Kbps\nChannel(s) : 6 channels\nChannel positions : Front: L C R, Side: L R, LFE\nSampling rate : 48.0 KHz\nBit depth : 24 bits\nCompression mode : Lossless / Lossy\nTitle : Surround 5.1\nLanguage : English\nDefault : Yes\nForced : No\n\nAudio #2\nID : 3\nFormat : DTS\nFormat/Info : Digital Theater Systems\nMode : 16\nFormat settings, Endianness : Big\nCodec ID : A_DTS\nDuration : 2h 49mn\nBit rate mode : Constant\nBit rate : 1 509 Kbps\nChannel(s) : 6 channels\nChannel positions : Front: L C R, Side: L R, LFE\nSampling rate : 48.0 KHz\nBit depth : 24 bits\nCompression mode : Lossy\nStream size : 1.78 GiB (4%)\nTitle : Surround 5.1\nLanguage : English\nDefault : No\nForced : No\n\nAudio #3\nID : 4\nFormat : AC-3\nFormat/Info : Audio Coding 3\nMode extension : CM (complete main)\nFormat settings, Endianness : Big\nCodec ID : A_AC3\nDuration : 2h 49mn\nBit rate mode : Constant\nBit rate : 640 Kbps\nChannel(s) : 6 channels\nChannel positions : Front: L C R, Side: L R, LFE\nSampling rate : 48.0 KHz\nBit depth : 16 bits\nCompression mode : Lossy\nStream size : 774 MiB (2%)\nTitle : Surround 5.1\nLanguage : English\nDefault : No\nForced : No\n\nAudio #4\nID : 5\nFormat : DTS\nFormat/Info : Digital Theater Systems\nFormat profile : MA / Core\nMode : 16\nFormat settings, Endianness : Big\nCodec ID : A_DTS\nDuration : 2h 49mn\nBit rate mode : Variable\nBit rate : Unknown / 1 509 Kbps\nChannel(s) : 6 channels\nChannel positions : Front: L C R, Side: L R, LFE\nSampling rate : 48.0 KHz\nBit depth : 24 bits\nCompression mode : Lossless / Lossy\nTitle : Surround 5.1\nLanguage : German\nDefault : No\nForced : No\n\nAudio #5\nID : 6\nFormat : DTS\nFormat/Info : Digital Theater Systems\nMode : 16\nFormat settings, Endianness : Big\nCodec ID : A_DTS\nDuration : 2h 49mn\nBit rate mode : Constant\nBit rate : 1 509 Kbps\nChannel(s) : 6 channels\nChannel positions : Front: L C R, Side: L R, LFE\nSampling rate : 48.0 KHz\nBit depth : 24 bits\nCompression mode : Lossy\nStream size : 1.78 GiB (4%)\nTitle : Surround 5.1\nLanguage : German\nDefault : No\nForced : No\n\nAudio #6\nID : 7\nFormat : AC-3\nFormat/Info : Audio Coding 3\nMode extension : CM (complete main)\nFormat settings, Endianness : Big\nCodec ID : A_AC3\nDuration : 2h 49mn\nBit rate mode : Constant\nBit rate : 640 Kbps\nChannel(s) : 6 channels\nChannel positions : Front: L C R, Side: L R, LFE\nSampling rate : 48.0 KHz\nBit depth : 16 bits\nCompression mode : Lossy\nStream size : 774 MiB (2%)\nTitle : Surround 5.1\nLanguage : Spanish\nDefault : No\nForced : No\n\nText #1\nID : 8\nFormat : PGS\nCodec ID : S_HDMV/PGS\nCodec ID/Info : The same subtitle format used on BDs/HD-DVDs\nLanguage : English\nDefault : No\nForced : No\n\nText #2\nID : 10\nFormat : PGS\nCodec ID : S_HDMV/PGS\nCodec ID/Info : The same subtitle format used on BDs/HD-DVDs\nLanguage : German\nDefault : No\nForced : No\n\nText #3\nID : 12\nFormat : PGS\nCodec ID : S_HDMV/PGS\nCodec ID/Info : The same subtitle format used on BDs/HD-DVDs\nLanguage : Spanish\nDefault : No\nForced : No\n\nText #4\nID : 14\nFormat : PGS\nCodec ID : S_HDMV/PGS\nCodec ID/Info : The same subtitle format used on BDs/HD-DVDs\nLanguage : Danish\nDefault : No\nForced : No\n\nText #5\nID : 16\nFormat : PGS\nCodec ID : S_HDMV/PGS\nCodec ID/Info : The same subtitle format used on BDs/HD-DVDs\nLanguage : Finnish\nDefault : No\nForced : No\n\nText #6\nID : 18\nFormat : PGS\nCodec ID : S_HDMV/PGS\nCodec ID/Info : The same subtitle format used on BDs/HD-DVDs\nLanguage : Icelandic\nDefault : No\nForced : No\n\nText #7\nID : 20\nFormat : PGS\nCodec ID : S_HDMV/PGS\nCodec ID/Info : The same subtitle format used on BDs/HD-DVDs\nLanguage : Norwegian\nDefault : No\nForced : No\n\nText #8\nID : 22\nFormat : PGS\nCodec ID : S_HDMV/PGS\nCodec ID/Info : The same subtitle format used on BDs/HD-DVDs\nLanguage : Swedish\nDefault : No\nForced : No\n\nText #9\nID : 24\nFormat : PGS\nCodec ID : S_HDMV/PGS\nCodec ID/Info : The same subtitle format used on BDs/HD-DVDs\nLanguage : Spanish\nDefault : No\nForced : No\n\nMenu\n00:00:00.000 : en:Chapter 01\n00:09:35.283 : en:Chapter 02\n00:17:12.281 : en:Chapter 03\n00:25:00.707 : en:Chapter 04\n00:35:45.101 : en:Chapter 05\n00:42:16.825 : en:Chapter 06\n00:50:19.558 : en:Chapter 07\n00:54:47.784 : en:Chapter 08\n00:58:59.369 : en:Chapter 09\n01:06:14.971 : en:Chapter 10\n01:17:28.018 : en:Chapter 11\n01:25:31.960 : en:Chapter 12\n01:34:31.957 : en:Chapter 13\n01:46:14.659 : en:Chapter 14\n01:55:34.510 : en:Chapter 15\n02:02:14.327 : en:Chapter 16\n02:12:56.802 : en:Chapter 17\n02:20:53.778 : en:Chapter 18\n02:35:12.052 : en:Chapter 19\n02:43:59.830 : en:Chapter 20\n\n\n\n\nNotes:\nGreetz to all! :)","torrent":{"xt":"urn:btih:f468064f94d1470f94fc637676fad1f1c399ba52","amp;dn":"Interstellar.2014.1080p.BluRay.REMUX.AVC.DTS-HD.MA.5.1-RARBG","amp;tr":["udp%3A%2F%2Ftracker.openbittorrent.com%3A80","udp%3A%2F%2Fopen.demonii.com%3A1337","udp%3A%2F%2Ftracker.coppersurfer.tk%3A6969","udp%3A%2F%2Fexodus.desync.com%3A6969"],"infoHash":"f468064f94d1470f94fc637676fad1f1c399ba52","infoHashBuffer":{"type":"Buffer","data":[244,104,6,79,148,209,71,15,148,252,99,118,118,250,209,241,195,153,186,82]},"announce":[],"urlList":[]}}